#!OML:ASF F:\VICON\USERDATA\INSTALL\rory3\rory3.ASF
:FULLY-SPECIFIED
:DEGREES
817
root 1.98917 18.9086 -4.32966 -3.21015 -9.94809 1.66396
lowerback 5.87366 1.52912 -3.61778
upperback 0.917168 1.77497 -1.12501
thorax -2.42104 0.909185 0.729556
lowerneck -3.68302 -2.07029 -6.04325
upperneck 25.141 -3.70903 6.39485
head 8.62204 -1.73353 2.8882
rclavicle -3.34455e-014 1.39149e-014
rhumerus -32.8601 32.8389 -93.4955
rradius 94.8709
rwrist -10.6109
rhand -41.3641 11.4378
rfingers 7.12502
rthumb -14.2825 -18.051
lclavicle -3.34455e-014 1.39149e-014
lhumerus -38.4737 -24.3282 93.3049
lradius 103.768
lwrist -12.0935
lhand -26.8975 25.3189
lfingers 7.12502
lthumb -0.321064 55.2984
rfemur 4.99168 19.7168 16.806
rtibia 11.177
rfoot -12.4256 -21.1153
rtoes -6.61091
lfemur 0 0 0
ltibia 0
lfoot 0 0
ltoes 0
818
root 1.99067 18.9074 -4.32719 -3.21973 -9.95028 1.66451
lowerback 5.85137 1.51974 -3.5924
upperback 0.938439 1.76559 -1.13288
thorax -2.38524 0.903583 0.709029
lowerneck -3.68703 -2.06413 -6.04599
upperneck 25.0809 -3.69774 6.39899
head 8.60133 -1.72808 2.89009
rclavicle -2.92835e-014 1.43125e-014
rhumerus -32.8396 32.9218 -93.5793
rradius 94.471
rwrist -10.5077
rhand -41.5464 11.6869
rfingers 7.12502
rthumb -14.4581 -17.7894
lclavicle -2.92835e-014 1.43125e-014
lhumerus -38.3023 -24.8676 93.4796
lradius 104.019
lwrist -12.3028
lhand -26.7213 25.1904
lfingers 7.12502
lthumb -0.150875 55.1701
rfemur 5.01588 19.678 16.7965
rtibia 11.1708
rfoot -12.4075 -21.1131
rtoes -6.65098
lfemur 0 0 0
ltibia 0
lfoot 0 0
ltoes 0
819
root 1.99187 18.9061 -4.32545 -3.24386 -9.95287 1.63717
lowerback 5.86106 1.51206 -3.54427
upperback 0.95164 1.75833 -1.132
thorax -2.37533 0.899322 0.683622
lowerneck -3.63491 -2.04487 -6.0313
upperneck 24.9986 -3.67175 6.40239
head 8.56114 -1.71523 2.89009
rclavicle 5.36967e-014 -2.46493e-014
rhumerus -32.8619 32.9565 -93.6832
rradius 94.1785
rwrist -10.4913
rhand -41.5904 11.713
rfingers 7.12502
rthumb -14.5006 -17.7603
lclavicle 5.36967e-014 -2.46493e-014
lhumerus -37.9903 -25.4428 93.6184
lradius 104.206
lwrist -12.4573
lhand -26.6039 25.2692
lfingers 7.12502
lthumb -0.0374802 55.249
rfemur 5.05568 19.6505 16.8287
rtibia 11.1718
rfoot -12.3945 -21.1359
rtoes -6.70614
lfemur 0 0 0
ltibia 0
lfoot 0 0
ltoes 0
820
root 1.99271 18.9057 -4.32264 -3.25104 -9.95498 1.67978
lowerback 5.84044 1.50191 -3.6006
upperback 0.954909 1.74251 -1.12667
thorax -2.36165 0.89169 0.722465
lowerneck -3.61669 -2.03696 -6.02312
upperneck 24.9299 -3.6523 6.37279
head 8.53222 -1.70848 2.87926
rclavicle 5.30507e-015 -1.98785e-015
rhumerus -32.9785 33.0283 -93.8005
rradius 93.986
rwrist -10.3849
rhand -41.8194 12.1471
rfingers 7.12502
rthumb -14.7212 -17.3102
lclavicle 5.30507e-015 -1.98785e-015
lhumerus -37.5365 -26.0186 93.7544
lradius 104.371
lwrist -12.5822
lhand -26.4369 25.6036
lfingers 7.12502
lthumb 0.123768 55.5833
rfemur 5.07547 19.6231 16.7733
rtibia 11.1499
rfoot -12.3529 -21.0686
rtoes -6.77264
lfemur 0 0 0
ltibia 0
lfoot 0 0
ltoes 0
821
root 1.99363 18.9046 -4.31912 -3.23924 -9.95459 1.71697
lowerback 5.79891 1.48511 -3.64826
upperback 0.955948 1.71932 -1.12371
thorax -2.33793 0.880199 0.755129
lowerneck -3.71293 -2.05464 -6.00068
upperneck 24.9484 -3.65983 6.30254
head 8.55563 -1.71479 2.85015
rclavicle -3.41661e-015 1.98785e-015
rhumerus -33.0969 33.1362 -93.9413
rradius 93.7752
rwrist -10.2226
rhand -42.2489 12.4927
rfingers 7.12502
rthumb -15.1349 -16.9339
lclavicle -3.41661e-015 1.98785e-015
lhumerus -37.3401 -26.4043 93.9357
lradius 104.634
lwrist -12.8731
lhand -26.228 25.9328
lfingers 7.12502
lthumb 0.325534 55.9123
rfemur 5.06982 19.5712 16.7144
rtibia 11.135
rfoot -12.3242 -20.9782
rtoes -6.88757
lfemur 0 0 0
ltibia 0
lfoot 0 0
ltoes 0
822
root 1.99391 18.9038 -4.3181 -3.23811 -9.97893 1.69458
lowerback 5.80208 1.47709 -3.62477
upperback 0.970763 1.71044 -1.12093
thorax -2.32346 0.875247 0.745752
lowerneck -3.85763 -2.06877 -5.96013
upperneck 24.9924 -3.66667 6.24653
head 8.59657 -1.71689 2.82284
rclavicle -6.83322e-015 1.59028e-015
rhumerus -33.1241 33.1763 -94.0588
rradius 93.566
rwrist -10.1378
rhand -42.4714 12.3267
rfingers 7.12502
rthumb -15.3493 -17.0836
lclavicle -6.83322e-015 1.59028e-015
lhumerus -37.2828 -26.6776 94.079
lradius 104.903
lwrist -13.1375
lhand -26.0958 25.9222
lfingers 7.12502
lthumb 0.453189 55.9015
rfemur 5.05814 19.558 16.7354
rtibia 11.156
rfoot -12.3246 -20.9427
rtoes -6.90865
lfemur 0 0 0
ltibia 0
lfoot 0 0
ltoes 0
823
root 1.99324 18.9047 -4.31785 -3.27063 -10.0236 1.65876
lowerback 5.86214 1.47707 -3.60431
upperback 0.982769 1.70957 -1.10151
thorax -2.34459 0.874851 0.75301
lowerneck -3.95165 -2.07506 -5.9546
upperneck 25.0027 -3.66561 6.21863
head 8.61704 -1.71684 2.8118
rclavicle 2.48605e-014 -1.23246e-014
rhumerus -33.176 33.1758 -94.1353
rradius 93.4207
rwrist -10.0619
rhand -42.3489 12.3627
rfingers 7.12502
rthumb -15.2313 -17.0566
lclavicle 2.48605e-014 -1.23246e-014
lhumerus -37.2613 -26.8804 94.2091
lradius 105.15
lwrist -13.1822
lhand -25.9959 25.4354
lfingers 7.12502
lthumb 0.549729 55.4144
rfemur 5.08054 19.6112 16.7945
rtibia 11.1908
rfoot -12.3561 -20.9425
rtoes -6.73667
lfemur 0 0 0
ltibia 0
lfoot 0 0
ltoes 0
824
root 1.99299 18.905 -4.31554 -3.28561 -10.0392 1.67768
lowerback 5.86964 1.46442 -3.63371
upperback 0.986196 1.69088 -1.09103
thorax -2.34565 0.865768 0.781594
lowerneck -3.96289 -2.08272 -6.02989
upperneck 24.9561 -3.67469 6.26279
head 8.60581 -1.72385 2.83833
rclavicle -2.31087e-015 -2.78299e-015
rhumerus -33.2715 33.2315 -94.2209
rradius 93.31
rwrist -9.93905
rhand -42.3306 12.7166
rfingers 7.12502
rthumb -15.2137 -16.704
lclavicle -2.31087e-015 -2.78299e-015
lhumerus -37.3001 -27.0633 94.3924
lradius 105.378
lwrist -13.2242
lhand -25.8778 25.0492
lfingers 7.12502
lthumb 0.66375 55.0279
rfemur 5.091 19.6345 16.7804
rtibia 11.2155
rfoot -12.4213 -20.9502
rtoes -6.62902
lfemur 0 0 0
ltibia 0
lfoot 0 0
ltoes 0
825
root 1.9936 18.9047 -4.31294 -3.23361 -10.0114 1.77476
lowerback 5.76972 1.43339 -3.71835
upperback 0.981697 1.64857 -1.11327
thorax -2.29443 0.844629 0.811885
lowerneck -3.955 -2.06872 -6.09096
upperneck 24.9115 -3.65677 6.30976
head 8.58949 -1.71691 2.86593
rclavicle 3.40419e-015 -4.37326e-015
rhumerus -33.3469 33.2993 -94.3302
rradius 93.2285
rwrist -9.84308
rhand -42.5257 12.8552
rfingers 7.12502
rthumb -15.4016 -16.5511
lclavicle 3.40419e-015 -4.37326e-015
lhumerus -37.3036 -27.2887 94.562
lradius 105.583
lwrist -13.4663
lhand -25.6568 25.0285
lfingers 7.12502
lthumb 0.877256 55.0064
rfemur 5.00388 19.5902 16.6406
rtibia 11.2682
rfoot -12.49 -20.9316
rtoes -6.66907
lfemur 0 0 0
ltibia 0
lfoot 0 0
ltoes 0
826
root 1.99144 18.9045 -4.313 -3.22087 -10.0787 1.72089
lowerback 5.74764 1.42633 -3.69356
upperback 0.992064 1.64297 -1.07958
thorax -2.27144 0.841341 0.833867
lowerneck -3.97185 -2.04491 -6.13066
upperneck 24.9022 -3.61787 6.31253
head 8.5874 -1.70175 2.87686
rclavicle -2.0363e-014 1.15295e-014
rhumerus -33.4152 33.3311 -94.4332
rradius 93.1422
rwrist -9.65588
rhand -42.6474 12.8099
rfingers 7.12502
rthumb -15.5188 -16.5873
lclavicle -2.0363e-014 1.15295e-014
lhumerus -37.2719 -27.4245 94.6776
lradius 105.813
lwrist -13.6715
lhand -25.4422 24.9021
lfingers 7.12502
lthumb 1.08447 54.8791
rfemur 4.97432 19.6737 16.7168
rtibia 11.2937
rfoot -12.4935 -20.9567
rtoes -6.67525
lfemur 0 0 0
ltibia 0
lfoot 0 0
ltoes 0
827
root 1.9895 18.9054 -4.31414 -3.16634 -10.1269 1.69638
lowerback 5.71224 1.41267 -3.71686
upperback 0.975889 1.62556 -1.04478
thorax -2.26926 0.833131 0.884698
lowerneck -4.00364 -2.02883 -6.20145
upperneck 24.9119 -3.59042 6.33376
head 8.5963 -1.69287 2.89867
rclavicle -2.72956e-014 8.34896e-015
rhumerus -33.4924 33.3647 -94.535
rradius 93.0294
rwrist -9.29549
rhand -42.6626 12.7272
rfingers 7.12502
rthumb -15.5334 -16.6689
lclavicle -2.72956e-014 8.34896e-015
lhumerus -37.0385 -27.687 94.7191
lradius 105.948
lwrist -13.6569
lhand -25.3328 24.7552
lfingers 7.12502
lthumb 1.19015 54.7316
rfemur 4.90915 19.7286 16.7371
rtibia 11.2641
rfoot -12.4256 -20.9878
rtoes -6.75187
lfemur 0 0 0
ltibia 0
lfoot 0 0
ltoes 0
828
root 1.98953 18.9062 -4.31136 -3.17207 -10.148 1.65931
lowerback 5.71574 1.3959 -3.69349
upperback 0.966342 1.60489 -1.01952
thorax -2.28024 0.823025 0.899023
lowerneck -4.07369 -2.01479 -6.22648
upperneck 24.979 -3.57169 6.3513
head 8.63174 -1.68357 2.9112
rclavicle -7.0817e-016 6.75868e-015
rhumerus -33.592 33.4085 -94.6451
rradius 92.934
rwrist -8.96798
rhand -42.6136 12.6612
rfingers 7.12502
rthumb -15.4862 -16.7386
lclavicle -7.0817e-016 6.75868e-015
lhumerus -36.6352 -28.2022 94.7165
lradius 105.966
lwrist -13.633
lhand -25.3319 24.9795
lfingers 7.12502
lthumb 1.19099 54.9559
rfemur 4.96126 19.7905 16.7966
rtibia 11.192
rfoot -12.353 -21.095
rtoes -6.88535
lfemur 0 0 0
ltibia 0
lfoot 0 0
ltoes 0
